<svg width="15" height="15" viewBox="0 0 15 15" fill="none" xmlns="http://www.w3.org/2000/svg">
<path fill-rule="evenodd" clip-rule="evenodd" d="M7.5 1.5C4.18629 1.5 1.5 4.18629 1.5 7.5C1.5 10.8137 4.18629 13.5 7.5 13.5C10.8137 13.5 13.5 10.8137 13.5 7.5C13.5 4.18629 10.8137 1.5 7.5 1.5ZM0 7.5C0 3.35786 3.35786 0 7.5 0C11.6421 0 15 3.35786 15 7.5C15 11.6421 11.6421 15 7.5 15C3.35786 15 0 11.6421 0 7.5ZM7.5 3.75C7.91421 3.75 8.25 4.08579 8.25 4.5V6.75H10.5C10.9142 6.75 11.25 7.08579 11.25 7.5C11.25 7.91421 10.9142 8.25 10.5 8.25H8.25V10.5C8.25 10.9142 7.91421 11.25 7.5 11.25C7.08579 11.25 6.75 10.9142 6.75 10.5V8.25H4.5C4.08579 8.25 3.75 7.91421 3.75 7.5C3.75 7.08579 4.08579 6.75 4.5 6.75H6.75V4.5C6.75 4.08579 7.08579 3.75 7.5 3.75Z" fill="white"/>
<path fill-rule="evenodd" clip-rule="evenodd" d="M7.5 1.5C4.18629 1.5 1.5 4.18629 1.5 7.5C1.5 10.8137 4.18629 13.5 7.5 13.5C10.8137 13.5 13.5 10.8137 13.5 7.5C13.5 4.18629 10.8137 1.5 7.5 1.5ZM0 7.5C0 3.35786 3.35786 0 7.5 0C11.6421 0 15 3.35786 15 7.5C15 11.6421 11.6421 15 7.5 15C3.35786 15 0 11.6421 0 7.5ZM7.5 3.75C7.91421 3.75 8.25 4.08579 8.25 4.5V6.75H10.5C10.9142 6.75 11.25 7.08579 11.25 7.5C11.25 7.91421 10.9142 8.25 10.5 8.25H8.25V10.5C8.25 10.9142 7.91421 11.25 7.5 11.25C7.08579 11.25 6.75 10.9142 6.75 10.5V8.25H4.5C4.08579 8.25 3.75 7.91421 3.75 7.5C3.75 7.08579 4.08579 6.75 4.5 6.75H6.75V4.5C6.75 4.08579 7.08579 3.75 7.5 3.75Z" fill="white"/>
<path d="M1.5 7.5C1.5 4.18629 4.18629 1.5 7.5 1.5C10.8137 1.5 13.5 4.18629 13.5 7.5C13.5 10.8137 10.8137 13.5 7.5 13.5C4.18629 13.5 1.5 10.8137 1.5 7.5ZM7.5 0C3.35786 0 0 3.35786 0 7.5C0 11.6421 3.35786 15 7.5 15C11.6421 15 15 11.6421 15 7.5C15 3.35786 11.6421 0 7.5 0ZM8.25 4.5C8.25 4.08579 7.91421 3.75 7.5 3.75C7.08579 3.75 6.75 4.08579 6.75 4.5V6.75H4.5C4.08579 6.75 3.75 7.08579 3.75 7.5C3.75 7.91421 4.08579 8.25 4.5 8.25H6.75V10.5C6.75 10.9142 7.08579 11.25 7.5 11.25C7.91421 11.25 8.25 10.9142 8.25 10.5V8.25H10.5C10.9142 8.25 11.25 7.91421 11.25 7.5C11.25 7.08579 10.9142 6.75 10.5 6.75H8.25V4.5Z" stroke="black" stroke-width="0.5" stroke-miterlimit="10" stroke-linecap="round" stroke-linejoin="round"/>
</svg>
