<svg width="69" height="69" viewBox="0 0 69 69" fill="none" xmlns="http://www.w3.org/2000/svg">
<path d="M0 8.94444C0 4.00456 4.00456 0 8.94444 0H60.0556C64.9954 0 69 4.00456 69 8.94444C69 13.8843 64.9954 17.8889 60.0556 17.8889H8.94444C4.00456 17.8889 0 13.8843 0 8.94444Z" fill="white"/>
<path d="M0 34.5C0 29.5601 4.00456 25.5556 8.94444 25.5556H37.0556C41.9954 25.5556 46 29.5601 46 34.5C46 39.4399 41.9954 43.4444 37.0556 43.4444H8.94444C4.00456 43.4444 0 39.4399 0 34.5Z" fill="white"/>
<path d="M0 60.0556C0 55.1157 4.00456 51.1111 8.94444 51.1111C13.8843 51.1111 17.8889 55.1157 17.8889 60.0556C17.8889 64.9954 13.8843 69 8.94444 69C4.00456 69 0 64.9954 0 60.0556Z" fill="white"/>
</svg>
