<svg width="23" height="23" viewBox="0 0 23 23" fill="none" xmlns="http://www.w3.org/2000/svg">
<path d="M0 3.2042C0 1.43457 1.43457 0 3.2042 0H19.7958C21.5655 0 23 1.43457 23 3.2042C23 4.97383 21.5655 6.4084 19.7958 6.4084H3.2042C1.43456 6.4084 0 4.97383 0 3.2042Z" fill="white"/>
<path d="M0 11.456C0 9.68641 1.43457 8.25184 3.2042 8.25184H12.0055C13.7751 8.25184 15.2097 9.68641 15.2097 11.456C15.2097 13.2257 13.7751 14.6602 12.0055 14.6602H3.2042C1.43457 14.6602 0 13.2257 0 11.456Z" fill="white"/>
<path d="M0 19.7519C0 17.958 1.45422 16.5038 3.24809 16.5038H3.61482C5.40869 16.5038 6.86291 17.958 6.86291 19.7519C6.86291 21.5458 5.40869 23 3.61482 23H3.24809C1.45422 23 0 21.5458 0 19.7519Z" fill="white"/>
</svg>
