<svg width="28" height="28" viewBox="0 0 28 28" fill="none" xmlns="http://www.w3.org/2000/svg">
<path fill-rule="evenodd" clip-rule="evenodd" d="M14 2.8C7.81441 2.8 2.8 7.81441 2.8 14C2.8 20.1856 7.81441 25.2 14 25.2C20.1856 25.2 25.2 20.1856 25.2 14C25.2 7.81441 20.1856 2.8 14 2.8ZM0 14C0 6.26801 6.26801 0 14 0C21.732 0 28 6.26801 28 14C28 21.732 21.732 28 14 28C6.26801 28 0 21.732 0 14ZM14 7C14.7732 7 15.4 7.6268 15.4 8.4V12.6H19.6C20.3732 12.6 21 13.2268 21 14C21 14.7732 20.3732 15.4 19.6 15.4H15.4V19.6C15.4 20.3732 14.7732 21 14 21C13.2268 21 12.6 20.3732 12.6 19.6V15.4H8.4C7.6268 15.4 7 14.7732 7 14C7 13.2268 7.6268 12.6 8.4 12.6H12.6V8.4C12.6 7.6268 13.2268 7 14 7Z" fill="white"/>
<path fill-rule="evenodd" clip-rule="evenodd" d="M14 2.8C7.81441 2.8 2.8 7.81441 2.8 14C2.8 20.1856 7.81441 25.2 14 25.2C20.1856 25.2 25.2 20.1856 25.2 14C25.2 7.81441 20.1856 2.8 14 2.8ZM0 14C0 6.26801 6.26801 0 14 0C21.732 0 28 6.26801 28 14C28 21.732 21.732 28 14 28C6.26801 28 0 21.732 0 14ZM14 7C14.7732 7 15.4 7.6268 15.4 8.4V12.6H19.6C20.3732 12.6 21 13.2268 21 14C21 14.7732 20.3732 15.4 19.6 15.4H15.4V19.6C15.4 20.3732 14.7732 21 14 21C13.2268 21 12.6 20.3732 12.6 19.6V15.4H8.4C7.6268 15.4 7 14.7732 7 14C7 13.2268 7.6268 12.6 8.4 12.6H12.6V8.4C12.6 7.6268 13.2268 7 14 7Z" fill="white"/>
<path d="M2.8 14C2.8 7.81441 7.81441 2.8 14 2.8C20.1856 2.8 25.2 7.81441 25.2 14C25.2 20.1856 20.1856 25.2 14 25.2C7.81441 25.2 2.8 20.1856 2.8 14ZM14 0C6.26801 0 0 6.26801 0 14C0 21.732 6.26801 28 14 28C21.732 28 28 21.732 28 14C28 6.26801 21.732 0 14 0ZM15.4 8.4C15.4 7.6268 14.7732 7 14 7C13.2268 7 12.6 7.6268 12.6 8.4V12.6H8.4C7.6268 12.6 7 13.2268 7 14C7 14.7732 7.6268 15.4 8.4 15.4H12.6V19.6C12.6 20.3732 13.2268 21 14 21C14.7732 21 15.4 20.3732 15.4 19.6V15.4H19.6C20.3732 15.4 21 14.7732 21 14C21 13.2268 20.3732 12.6 19.6 12.6H15.4V8.4Z" stroke="black" stroke-width="0.5" stroke-miterlimit="10" stroke-linecap="round" stroke-linejoin="round"/>
</svg>
